<?xml version="1.0" standalone="no"?>
<!DOCTYPE svg PUBLIC "-//W3C//DTD SVG 20010904//EN"
 "http://www.w3.org/TR/2001/REC-SVG-20010904/DTD/svg10.dtd">
<svg version="1.0" xmlns="http://www.w3.org/2000/svg"
 width="1080.000000pt" height="1350.000000pt" viewBox="0 0 1080.000000 1350.000000"
 preserveAspectRatio="xMidYMid meet">

<g transform="translate(0.000000,1350.000000) scale(0.100000,-0.100000)"
fill="#000000" stroke="none">
<path d="M5260 10593 c-358 -37 -562 -68 -765 -118 -474 -116 -983 -359 -1401
-670 -547 -407 -975 -946 -1238 -1560 -114 -267 -231 -655 -275 -915 -59 -344
-53 -944 14 -1324 103 -586 402 -1247 785 -1731 360 -456 897 -894 1364 -1110
1162 -538 2340 -534 3446 11 393 194 659 378 947 658 580 563 978 1244 1147
1966 102 434 126 940 65 1395 -98 734 -409 1438 -888 2010 -156 186 -441 454
-644 604 -377 278 -841 508 -1282 635 -222 63 -557 122 -835 146 -108 9 -363
11 -440 3z m650 -337 c615 -79 1167 -295 1685 -659 253 -177 592 -514 797
-791 270 -364 542 -1020 633 -1531 36 -199 36 -957 0 -1189 -48 -315 -212
-781 -387 -1101 -183 -335 -363 -579 -627 -848 -303 -309 -586 -517 -955 -699
-157 -77 -244 -107 -256 -88 -4 7 -10 51 -14 98 -12 143 -53 408 -91 588 -21
97 -33 174 -28 180 4 7 76 66 158 132 303 241 718 636 908 862 292 348 366
533 307 766 -32 129 -209 471 -403 779 -109 173 -352 490 -454 591 -239 236
-553 393 -824 411 -149 9 -199 -17 -199 -103 0 -83 35 -104 311 -189 277 -86
342 -119 478 -249 233 -223 667 -870 808 -1206 40 -95 44 -111 41 -171 -5 -85
-40 -155 -156 -311 -115 -154 -259 -312 -489 -538 -322 -317 -572 -523 -594
-490 -14 22 -69 197 -69 220 0 35 27 65 143 161 283 235 447 413 622 674 178
265 173 319 -59 595 -171 204 -323 363 -373 389 -26 13 -83 14 -117 1 -36 -13
-50 -40 -136 -253 -43 -106 -106 -253 -140 -327 -234 -511 -262 -605 -262
-880 0 -193 26 -315 172 -790 72 -238 139 -512 165 -676 32 -209 47 -366 34
-379 -13 -13 -340 -90 -484 -114 -66 -11 -167 -25 -224 -31 -247 -24 -676 -3
-991 51 -208 35 -201 30 -250 175 -72 212 -124 541 -124 779 1 275 39 512 164
1015 126 508 157 729 148 1052 -5 138 -9 176 -32 251 -28 94 -70 185 -118 254
-65 96 -227 235 -433 373 -303 204 -500 382 -616 558 -90 137 -229 433 -229
488 0 9 35 -20 78 -63 118 -120 264 -225 462 -334 311 -169 566 -221 1169
-239 185 -5 345 -14 369 -21 23 -6 45 -9 48 -6 17 17 -84 249 -118 271 -26 17
-161 32 -363 41 -757 34 -980 110 -1350 465 -245 235 -301 284 -348 306 -46
21 -53 21 -94 9 -57 -17 -81 -39 -106 -94 -27 -61 -26 -260 3 -401 54 -265
208 -542 428 -771 126 -132 217 -208 497 -419 256 -192 295 -226 365 -320 104
-141 123 -213 123 -460 -1 -215 -15 -304 -113 -720 -182 -768 -188 -809 -197
-1155 -7 -309 6 -493 51 -685 49 -209 38 -221 -142 -154 -262 98 -635 314
-877 509 -713 574 -1176 1350 -1329 2230 -43 252 -49 343 -43 684 8 457 35
650 138 981 75 243 111 334 214 545 181 370 392 664 684 953 599 593 1386 958
2226 1032 146 12 648 4 785 -14z m943 -4111 c66 -45 267 -290 267 -325 0 -36
-131 -226 -256 -370 -93 -107 -342 -355 -392 -389 -29 -20 -33 -21 -38 -6 -13
32 5 221 30 317 25 100 54 171 211 518 51 113 100 222 109 243 8 20 19 37 23
37 5 0 25 -11 46 -25z"/>
<path d="M5380 9670 c-234 -42 -455 -221 -561 -455 -110 -243 -109 -545 1
-822 86 -216 236 -372 454 -473 128 -61 192 -74 341 -74 122 0 135 2 214 32
253 96 440 312 525 606 64 220 49 452 -46 690 -110 275 -354 470 -625 496
-115 11 -240 11 -303 0z m343 -279 c165 -45 312 -208 377 -416 14 -45 24 -107
27 -175 4 -91 1 -119 -21 -204 -57 -219 -166 -370 -323 -448 -79 -39 -92 -43
-183 -46 -74 -3 -111 0 -149 13 -202 67 -370 274 -432 532 -18 73 -20 109 -16
208 7 189 52 291 184 416 121 116 177 137 353 138 84 1 134 -4 183 -18z"/>
<path d="M6115 7211 c-72 -43 -111 -122 -94 -186 21 -75 114 -101 169 -47 29
29 50 86 50 135 0 59 -40 117 -82 117 -7 0 -27 -8 -43 -19z"/>
<path d="M5970 6792 c-23 -11 -43 -33 -57 -62 -34 -65 -30 -95 16 -141 89 -90
181 -22 181 133 0 40 -4 50 -29 67 -36 26 -65 26 -111 3z"/>
<path d="M5774 6348 c-54 -25 -84 -154 -49 -204 30 -44 138 -37 169 10 42 64
40 173 -4 196 -24 13 -89 12 -116 -2z"/>
<path d="M5633 5940 c-52 -22 -83 -117 -61 -185 11 -33 20 -42 52 -53 30 -9
47 -10 73 -1 79 26 117 159 62 215 -29 28 -89 40 -126 24z"/>
<path d="M5495 5456 c-48 -48 -45 -147 6 -190 96 -81 227 60 160 170 -30 49
-125 61 -166 20z"/>
<path d="M5043 5230 c0 -25 2 -35 4 -22 2 12 2 32 0 45 -2 12 -4 2 -4 -23z"/>
<path d="M5036 5091 c-4 -5 -2 -20 3 -33 9 -21 10 -21 10 10 1 32 -3 39 -13
23z"/>
<path d="M5455 5006 c-49 -49 -45 -148 10 -203 36 -36 61 -41 105 -18 71 37
88 167 29 226 -29 29 -112 27 -144 -5z"/>
<path d="M5515 4566 c-47 -47 -45 -148 5 -198 23 -22 37 -28 72 -28 64 0 88
28 88 104 0 71 -21 113 -65 132 -48 20 -72 18 -100 -10z"/>
</g>
</svg>
