<?xml version="1.0" standalone="no"?>
<!DOCTYPE svg PUBLIC "-//W3C//DTD SVG 20010904//EN"
 "http://www.w3.org/TR/2001/REC-SVG-20010904/DTD/svg10.dtd">
<svg version="1.0" xmlns="http://www.w3.org/2000/svg"
 width="1080.000000pt" height="1350.000000pt" viewBox="0 0 1080.000000 1350.000000"
 preserveAspectRatio="xMidYMid meet">

<g transform="translate(0.000000,1350.000000) scale(0.100000,-0.100000)"
fill="#000000" stroke="none">
<path d="M0 6750 l0 -6750 5400 0 5400 0 0 6750 0 6750 -5400 0 -5400 0 0
-6750z m5700 3840 c749 -65 1359 -274 1958 -672 803 -533 1372 -1347 1611
-2303 127 -507 148 -1068 60 -1590 -136 -806 -550 -1567 -1192 -2191 -288
-280 -554 -464 -947 -658 -855 -422 -1732 -520 -2643 -295 -364 90 -744 240
-1035 408 -414 240 -829 601 -1132 986 -338 428 -620 1010 -745 1537 -61 262
-85 468 -92 818 -11 518 28 783 184 1263 166 512 400 933 742 1332 572 668
1438 1162 2286 1304 99 17 329 46 505 64 77 8 332 6 440 -3z"/>
<path d="M5125 10270 c-840 -74 -1627 -439 -2226 -1032 -292 -289 -503 -583
-684 -953 -175 -356 -288 -724 -330 -1075 -23 -186 -32 -729 -15 -881 107
-989 584 -1855 1365 -2484 242 -195 615 -411 877 -509 180 -67 191 -55 142
154 -45 192 -58 376 -51 685 9 346 15 387 197 1155 98 416 112 505 113 720 0
247 -19 319 -123 460 -70 94 -109 128 -365 320 -280 211 -371 287 -497 419
-220 229 -374 506 -428 771 -29 141 -30 340 -3 401 25 55 49 77 106 94 81 24
107 6 442 -315 370 -355 593 -431 1350 -465 202 -9 337 -24 363 -41 34 -22
135 -254 118 -271 -3 -3 -25 0 -48 6 -24 7 -184 16 -369 21 -603 18 -858 70
-1169 239 -198 109 -344 214 -462 334 -43 43 -78 72 -78 63 0 -55 139 -351
229 -488 116 -176 313 -354 616 -558 206 -138 368 -277 433 -373 48 -69 90
-160 118 -254 23 -75 27 -113 32 -251 9 -323 -22 -544 -148 -1052 -189 -760
-207 -1049 -100 -1565 30 -144 78 -301 105 -341 18 -27 51 -38 205 -63 315
-54 744 -75 991 -51 57 6 158 20 224 31 144 24 471 101 484 114 13 13 -2 170
-34 379 -26 164 -93 438 -165 676 -146 475 -172 597 -172 790 0 275 28 369
262 880 34 74 97 221 140 327 86 213 100 240 136 253 34 13 91 12 117 -1 50
-26 202 -185 373 -389 232 -276 237 -330 59 -595 -175 -261 -339 -439 -622
-674 -116 -96 -143 -126 -143 -161 0 -23 55 -198 69 -220 22 -33 272 173 594
490 230 226 374 384 489 538 116 156 151 226 156 311 3 60 -1 76 -41 171 -141
336 -575 983 -808 1206 -136 130 -201 163 -478 249 -276 85 -311 106 -311 189
0 86 50 112 199 103 271 -18 585 -175 824 -411 102 -101 345 -418 454 -591
194 -308 371 -650 403 -779 59 -233 -15 -418 -307 -766 -190 -226 -605 -621
-908 -862 -82 -66 -154 -125 -158 -132 -5 -6 7 -83 28 -180 38 -180 79 -445
91 -588 4 -47 10 -91 14 -98 12 -19 99 11 256 88 369 182 652 390 955 699 264
269 444 513 627 848 175 320 339 786 387 1101 36 232 36 990 0 1189 -77 430
-270 941 -508 1341 -121 203 -281 400 -511 628 -167 165 -276 258 -411 353
-518 364 -1070 580 -1685 659 -137 18 -639 26 -785 14z m558 -600 c271 -26
515 -221 625 -496 95 -238 110 -470 46 -690 -85 -294 -272 -510 -525 -606 -79
-30 -92 -32 -214 -32 -149 0 -213 13 -341 74 -218 101 -368 257 -454 473 -190
477 -48 977 341 1195 148 84 284 105 522 82z m509 -2451 c62 -33 61 -177 -2
-241 -55 -54 -148 -28 -169 47 -17 64 22 143 94 186 35 22 48 23 77 8z m-111
-430 c25 -17 29 -27 29 -67 0 -107 -40 -172 -106 -172 -29 0 -44 8 -75 39 -46
46 -50 76 -16 141 36 73 111 100 168 59z m-191 -439 c44 -23 46 -132 4 -196
-31 -47 -139 -54 -169 -10 -35 50 -5 179 49 204 27 14 92 15 116 2z m-131
-434 c55 -56 17 -189 -62 -215 -26 -9 -43 -8 -73 1 -32 11 -41 20 -52 53 -22
68 9 163 61 185 37 16 97 4 126 -24z m-149 -442 c91 -19 91 -172 1 -219 -43
-22 -75 -19 -110 11 -73 61 -39 214 47 214 16 0 44 -3 62 -6z m-563 -266 c-2
-13 -4 -3 -4 22 0 25 2 35 4 23 2 -13 2 -33 0 -45z m2 -140 c0 -31 -1 -31 -10
-10 -5 13 -7 28 -3 33 10 16 14 9 13 -23z m550 -57 c59 -59 42 -189 -29 -226
-44 -23 -69 -18 -105 18 -55 55 -59 154 -10 203 32 32 115 34 144 5z m16 -435
c44 -19 65 -61 65 -132 0 -76 -24 -104 -88 -104 -35 0 -49 6 -72 28 -50 50
-52 151 -5 198 28 28 52 30 100 10z"/>
<path d="M5378 9396 c-59 -16 -116 -53 -191 -125 -132 -125 -177 -227 -184
-416 -4 -99 -2 -135 16 -208 62 -258 230 -465 432 -532 38 -13 75 -16 149 -13
91 3 104 7 183 46 157 78 266 229 323 448 45 174 23 351 -63 516 -70 134 -197
245 -320 279 -80 22 -270 25 -345 5z"/>
<path d="M6784 6133 c-9 -21 -58 -130 -109 -243 -157 -347 -186 -418 -211
-518 -25 -96 -43 -285 -30 -317 5 -15 9 -14 38 6 50 34 299 282 392 389 125
144 256 334 256 370 0 35 -201 280 -267 325 -21 14 -41 25 -46 25 -4 0 -15
-17 -23 -37z"/>
</g>
</svg>
