<?xml version="1.0" standalone="no"?>
<!DOCTYPE svg PUBLIC "-//W3C//DTD SVG 20010904//EN"
 "http://www.w3.org/TR/2001/REC-SVG-20010904/DTD/svg10.dtd">
<svg version="1.0" xmlns="http://www.w3.org/2000/svg"
 width="775.000000pt" height="775.000000pt" viewBox="0 0 775.000000 775.000000"
 preserveAspectRatio="xMidYMid meet">

<g transform="translate(0.000000,775.000000) scale(0.100000,-0.100000)"
fill="#000000" stroke="none">
<path d="M3765 6218 c-55 -6 -102 -14 -105 -18 -3 -4 -35 -11 -72 -14 -38 -4
-68 -11 -68 -16 0 -4 -20 -11 -45 -14 -25 -4 -45 -11 -45 -16 0 -4 -18 -11
-40 -15 -22 -4 -40 -10 -40 -15 0 -4 -16 -11 -35 -14 -19 -4 -35 -11 -35 -16
0 -4 -13 -11 -30 -15 -16 -4 -30 -11 -30 -16 0 -5 -11 -11 -25 -15 -14 -3 -25
-10 -25 -15 0 -5 -6 -9 -13 -9 -8 0 -24 -9 -37 -20 -13 -11 -27 -20 -32 -20
-5 0 -14 -5 -21 -10 -46 -39 -61 -50 -68 -50 -5 0 -22 -13 -39 -30 -17 -16
-34 -30 -38 -30 -5 0 -19 -13 -32 -30 -14 -16 -30 -29 -35 -30 -6 0 -24 -16
-40 -36 -17 -21 -54 -62 -82 -92 -29 -30 -53 -58 -53 -62 0 -5 -15 -24 -34
-43 -19 -20 -40 -52 -47 -71 -7 -20 -17 -36 -22 -36 -4 0 -13 -13 -18 -30 -6
-16 -14 -30 -18 -30 -4 0 -13 -16 -21 -35 -8 -19 -17 -35 -21 -35 -4 0 -10
-13 -14 -30 -4 -16 -10 -30 -14 -30 -5 0 -14 -20 -21 -45 -7 -25 -16 -45 -21
-45 -4 0 -14 -27 -21 -60 -6 -33 -15 -60 -19 -60 -3 0 -12 -28 -19 -62 -7 -35
-16 -65 -20 -68 -8 -7 -30 -120 -30 -157 0 -17 -6 -33 -12 -35 -16 -6 -18
-536 -2 -546 6 -4 16 -50 23 -102 7 -52 16 -97 20 -100 4 -3 14 -33 21 -67 7
-35 16 -63 21 -63 4 0 13 -25 19 -55 6 -30 15 -55 19 -55 5 0 14 -21 22 -47 7
-27 19 -54 26 -61 7 -7 13 -20 13 -28 0 -8 4 -14 8 -14 5 0 15 -18 22 -40 7
-22 17 -40 21 -40 4 0 12 -13 18 -30 5 -16 14 -30 18 -30 5 0 15 -16 22 -36 7
-19 28 -51 47 -71 19 -19 34 -38 34 -43 0 -4 24 -33 53 -63 28 -30 72 -78 97
-106 25 -28 49 -51 55 -51 5 -1 21 -14 35 -30 13 -17 29 -30 35 -30 7 0 17
-11 24 -23 7 -13 28 -30 46 -37 19 -7 36 -19 39 -27 3 -7 12 -13 21 -13 8 0
15 -4 15 -10 0 -5 7 -10 15 -10 9 0 18 -6 21 -14 3 -8 19 -18 35 -21 16 -4 29
-11 29 -16 0 -5 9 -9 19 -9 11 0 26 -7 35 -15 8 -8 24 -15 35 -15 11 0 26 -6
34 -14 8 -8 31 -18 51 -21 20 -4 36 -11 36 -16 0 -5 18 -12 40 -15 22 -4 40
-10 40 -14 0 -4 24 -11 52 -14 29 -4 55 -11 58 -16 23 -37 666 -38 690 0 3 4
26 11 53 15 26 4 47 11 47 15 0 5 18 11 40 15 22 4 40 10 40 15 0 4 16 11 35
14 19 4 35 11 35 16 0 4 14 12 32 15 17 4 38 14 46 21 7 8 20 14 28 14 8 0 14
4 14 9 0 5 11 12 25 15 14 4 25 10 25 15 0 5 14 12 30 16 17 4 30 11 30 16 0
5 7 9 15 9 7 0 18 6 22 13 4 6 22 19 38 27 17 8 34 21 38 27 4 7 13 13 18 13
11 0 69 60 69 72 0 5 6 8 13 8 6 0 32 23 57 51 25 28 65 72 90 98 25 26 51 59
59 74 8 15 18 27 23 27 4 0 8 6 8 14 0 8 11 24 25 37 13 13 25 29 25 36 0 6 6
18 13 25 6 7 19 27 27 43 8 17 20 35 25 42 6 7 15 19 22 26 6 8 17 33 24 56 7
22 15 41 19 41 4 0 13 20 20 45 7 25 16 45 20 45 5 0 13 23 20 52 6 29 15 55
20 58 5 3 15 36 22 73 7 37 16 67 19 67 4 0 11 30 15 68 3 37 11 70 15 73 12
7 27 249 22 359 -6 164 -15 270 -23 270 -4 0 -11 29 -15 65 -3 36 -10 65 -14
65 -4 0 -13 34 -20 75 -7 41 -16 75 -20 75 -4 0 -13 23 -20 50 -7 28 -16 50
-20 50 -3 0 -12 23 -19 52 -6 28 -16 54 -21 57 -4 3 -14 23 -20 44 -7 20 -17
37 -22 37 -5 0 -11 11 -15 24 -3 14 -12 27 -19 30 -7 2 -16 18 -20 35 -4 17
-10 31 -14 31 -4 0 -14 12 -22 28 -8 15 -22 36 -31 46 -10 11 -18 26 -18 33 0
7 -4 13 -8 13 -5 0 -14 11 -21 24 -7 13 -24 30 -37 37 -13 7 -24 16 -24 21 0
4 -19 27 -42 51 -24 24 -56 60 -73 81 -16 20 -34 36 -40 36 -5 1 -21 14 -35
30 -13 17 -30 30 -37 30 -7 0 -13 5 -13 10 0 6 -11 15 -25 20 -14 5 -25 14
-25 19 0 5 -13 12 -29 16 -16 3 -32 13 -35 21 -3 8 -12 14 -21 14 -8 0 -15 4
-15 9 0 5 -11 12 -25 15 -14 4 -25 10 -25 15 0 5 -13 12 -30 16 -16 4 -30 11
-30 16 0 5 -11 11 -25 15 -14 3 -25 10 -25 15 0 4 -16 11 -35 15 -19 3 -35 10
-35 14 0 4 -16 11 -35 14 -19 4 -35 11 -35 16 0 5 -20 12 -45 16 -25 3 -45 10
-45 14 0 5 -30 12 -67 16 -38 3 -71 11 -74 15 -6 10 -223 29 -299 27 -25 0
-90 -5 -145 -10z m275 -136 c0 -5 44 -12 97 -15 53 -4 99 -11 102 -15 3 -5 28
-12 55 -16 28 -3 52 -10 55 -15 4 -5 25 -12 49 -16 23 -4 42 -11 42 -15 0 -5
16 -12 35 -16 19 -3 35 -10 35 -14 0 -5 14 -11 30 -15 17 -4 30 -11 30 -16 0
-5 20 -14 44 -20 25 -6 47 -17 50 -25 3 -8 12 -14 21 -14 8 0 15 -4 15 -9 0
-5 13 -12 29 -16 16 -3 32 -13 35 -21 3 -8 12 -14 20 -14 7 0 16 -7 20 -15 3
-8 12 -15 19 -15 7 0 20 -11 27 -25 7 -14 18 -25 23 -25 18 0 247 -245 247
-264 0 -7 9 -19 20 -29 11 -9 20 -24 20 -32 0 -8 5 -15 11 -15 5 0 15 -13 20
-30 6 -16 15 -30 19 -30 5 0 14 -16 20 -35 6 -19 15 -35 19 -35 5 0 14 -20 21
-45 7 -25 16 -45 19 -45 4 0 13 -22 20 -50 7 -27 17 -50 21 -50 5 0 11 -19 15
-42 4 -24 11 -46 16 -49 5 -3 14 -32 20 -65 6 -32 14 -61 19 -64 41 -27 41
-780 -1 -810 -3 -3 -12 -38 -19 -77 -6 -40 -16 -73 -20 -73 -5 0 -12 -16 -16
-35 -3 -19 -10 -35 -14 -35 -4 0 -13 -20 -20 -45 -7 -25 -16 -45 -20 -45 -4 0
-13 -20 -20 -45 -7 -25 -16 -45 -20 -45 -4 0 -13 -18 -20 -40 -7 -22 -17 -40
-22 -40 -5 0 -13 -11 -18 -25 -5 -14 -14 -25 -20 -25 -5 0 -10 -7 -10 -15 0
-8 -9 -23 -20 -32 -11 -10 -20 -23 -20 -29 0 -6 -11 -23 -25 -38 -14 -15 -25
-31 -25 -37 0 -5 -24 -33 -52 -63 -29 -30 -64 -68 -78 -85 -14 -16 -30 -30
-35 -31 -6 0 -22 -13 -35 -30 -14 -16 -31 -29 -38 -30 -7 0 -15 -7 -18 -15 -4
-8 -13 -15 -20 -15 -8 0 -17 -7 -20 -15 -4 -8 -13 -15 -20 -15 -8 0 -17 -7
-20 -15 -4 -8 -13 -15 -20 -15 -8 0 -17 -6 -20 -14 -3 -8 -19 -18 -35 -21 -16
-4 -29 -11 -29 -15 0 -5 -19 -15 -42 -22 -24 -6 -45 -15 -48 -18 -12 -16 -40
-19 -40 -5 0 8 -4 15 -8 15 -5 0 -14 64 -20 142 -7 78 -17 145 -22 148 -5 3
-10 22 -11 41 -3 31 3 42 42 78 24 23 58 55 75 71 17 17 36 30 43 30 6 0 11 4
11 9 0 4 35 45 78 89 42 44 97 104 122 132 25 28 55 62 68 76 12 14 22 29 22
34 0 5 13 24 30 42 16 18 37 41 46 52 9 10 21 47 27 82 6 35 15 64 19 64 4 0
8 9 8 20 0 11 -4 20 -10 20 -5 0 -10 12 -10 26 0 33 -21 104 -30 104 -4 0 -13
20 -20 45 -7 25 -16 45 -21 45 -4 0 -10 14 -14 30 -4 17 -10 30 -15 30 -5 0
-14 17 -21 38 -6 20 -17 40 -24 44 -7 4 -16 19 -19 33 -4 14 -15 34 -26 45
-11 11 -20 27 -20 35 0 8 -5 15 -10 15 -6 0 -16 12 -23 28 -6 15 -22 37 -34
48 -13 12 -23 25 -23 30 0 13 -106 124 -118 124 -5 0 -12 7 -16 15 -3 8 -10
15 -16 15 -10 0 -21 7 -54 37 -8 7 -25 15 -40 19 -14 3 -26 10 -26 14 0 5 -20
12 -45 16 -25 3 -45 10 -45 15 0 5 -21 9 -46 9 -33 0 -51 -5 -60 -17 -30 -40
-8 -89 45 -99 17 -4 31 -10 31 -14 0 -4 21 -10 46 -14 25 -3 52 -13 60 -21 9
-8 24 -15 35 -15 10 0 19 -4 19 -9 0 -5 9 -12 20 -16 32 -10 130 -117 130
-141 0 -8 5 -14 10 -14 6 0 16 -12 23 -27 6 -15 20 -36 30 -45 9 -10 17 -24
17 -32 0 -8 7 -16 15 -20 8 -3 15 -12 15 -20 0 -7 6 -16 14 -19 8 -3 17 -19
21 -36 4 -17 10 -31 15 -31 5 0 14 -17 21 -37 6 -21 18 -41 25 -46 7 -4 15
-21 19 -37 4 -17 10 -30 15 -30 4 0 14 -22 21 -50 7 -27 16 -50 21 -50 4 0 8
-13 8 -30 0 -16 -4 -30 -10 -30 -5 0 -10 -9 -10 -20 0 -21 -16 -55 -37 -78 -7
-7 -13 -19 -13 -25 0 -7 -16 -27 -35 -44 -19 -18 -35 -37 -35 -43 0 -5 -17
-28 -37 -49 -21 -22 -58 -63 -83 -91 -88 -100 -127 -140 -136 -140 -6 0 -24
-16 -40 -35 -16 -19 -34 -35 -40 -35 -7 0 -14 -7 -18 -15 -10 -28 -35 -16 -42
20 -3 19 -10 35 -15 35 -13 0 -11 29 4 44 6 7 25 30 42 50 16 20 34 36 40 36
5 1 21 15 35 32 14 16 46 52 72 78 25 27 49 58 53 69 3 12 15 26 26 31 10 6
19 17 19 25 0 7 6 20 13 27 6 7 19 27 27 43 8 17 19 33 23 36 13 9 14 108 2
117 -6 4 -16 19 -24 35 -8 15 -18 27 -23 27 -4 0 -8 6 -8 13 0 7 -22 37 -50
67 -27 30 -50 58 -50 62 0 13 -34 48 -46 48 -7 0 -14 4 -16 9 -1 5 -10 10 -18
11 -41 6 -50 -1 -62 -45 -7 -25 -15 -45 -19 -45 -4 0 -13 -25 -19 -55 -6 -30
-15 -55 -20 -55 -4 0 -13 -22 -20 -50 -7 -27 -16 -50 -20 -50 -5 0 -11 -13
-15 -30 -4 -16 -10 -30 -15 -30 -4 0 -13 -21 -20 -47 -6 -26 -15 -50 -20 -53
-5 -3 -15 -50 -21 -104 -10 -76 -10 -121 -1 -199 7 -56 16 -103 21 -106 5 -4
14 -39 21 -78 6 -40 15 -73 20 -73 4 0 11 -22 15 -50 4 -27 10 -50 14 -50 4 0
14 -39 21 -87 7 -49 16 -90 20 -93 4 -3 11 -51 14 -107 l8 -103 -41 -6 c-23
-4 -41 -10 -41 -14 0 -4 -26 -11 -57 -15 -32 -4 -61 -12 -65 -18 -9 -15 -441
-13 -446 2 -2 6 -21 11 -42 11 -66 0 -97 11 -111 39 -8 14 -17 28 -20 31 -7 6
-29 140 -29 179 0 17 -4 31 -10 31 -6 0 -10 60 -10 160 0 88 4 160 8 160 4 0
13 48 20 107 7 59 17 110 21 113 5 3 14 44 21 93 7 48 16 87 20 87 12 0 30
195 30 324 0 120 -12 224 -28 235 -4 4 -13 18 -19 33 -15 33 -44 68 -58 68 -5
1 -21 14 -35 30 -13 17 -29 30 -35 30 -7 0 -18 11 -25 25 -7 14 -18 25 -23 25
-6 0 -17 7 -26 15 -66 61 -82 75 -88 75 -7 0 -110 106 -144 148 -9 11 -22 37
-29 58 -7 22 -19 43 -26 47 -8 4 -14 19 -14 32 0 14 -4 25 -8 25 -8 0 -32 57
-32 75 0 5 8 0 18 -11 10 -10 31 -28 47 -39 15 -11 35 -28 44 -37 8 -10 21
-18 27 -18 7 0 14 -7 18 -15 3 -8 12 -15 20 -15 7 0 16 -7 20 -15 3 -8 12 -15
21 -15 8 0 15 -4 15 -10 0 -5 6 -10 14 -10 8 0 21 -6 28 -14 8 -7 30 -17 49
-21 19 -4 37 -12 40 -17 3 -5 32 -12 65 -15 32 -3 61 -10 64 -14 3 -4 94 -11
202 -15 l197 -7 -10 44 c-6 24 -14 46 -20 47 -5 2 -9 9 -9 17 0 16 -54 25
-157 25 -46 0 -83 4 -83 8 0 5 -48 12 -107 16 -59 3 -109 10 -112 15 -4 5 -23
12 -44 16 -20 4 -37 11 -37 16 0 5 -6 9 -13 9 -8 0 -24 9 -37 20 -13 11 -27
20 -32 20 -5 0 -25 15 -43 33 -19 17 -39 37 -45 42 -6 6 -39 40 -73 78 -35 37
-68 67 -74 67 -6 0 -13 7 -17 15 -8 22 -29 19 -61 -9 l-28 -24 5 -117 c2 -64
9 -120 14 -123 5 -4 15 -29 22 -57 7 -27 17 -52 22 -55 5 -3 12 -18 15 -33 4
-16 14 -31 21 -34 8 -3 14 -11 14 -19 0 -7 10 -24 23 -38 12 -13 30 -35 40
-49 31 -42 73 -87 83 -87 5 -1 20 -14 34 -30 13 -17 27 -30 32 -30 6 0 22 -13
89 -75 9 -8 20 -15 26 -15 6 0 13 -7 17 -15 3 -8 11 -15 17 -15 16 0 69 -60
69 -77 0 -8 6 -16 14 -19 8 -3 18 -19 21 -35 4 -16 11 -29 16 -29 5 0 9 -61 9
-140 0 -81 -4 -140 -9 -140 -6 0 -13 -31 -17 -70 -3 -38 -10 -70 -14 -70 -4 0
-14 -38 -21 -85 -7 -47 -15 -85 -19 -85 -3 0 -12 -47 -20 -105 -7 -58 -17
-105 -21 -105 -12 0 -12 -457 0 -462 5 -1 12 -31 16 -65 7 -60 6 -63 -14 -63
-12 0 -21 4 -21 9 0 5 -14 11 -31 15 -16 3 -37 13 -45 21 -9 8 -26 15 -40 15
-14 0 -27 6 -30 14 -3 8 -20 17 -39 20 -18 4 -36 13 -39 21 -3 8 -12 15 -20
15 -7 0 -16 7 -20 15 -3 8 -12 15 -21 15 -8 0 -15 5 -15 10 0 6 -7 13 -16 17
-9 3 -30 19 -46 35 -16 15 -32 28 -37 28 -4 0 -14 11 -21 25 -7 14 -18 25 -23
25 -14 0 -167 158 -167 173 0 7 -12 23 -25 36 -14 13 -25 29 -25 37 0 8 -4 14
-8 14 -5 0 -15 12 -23 28 -15 29 -18 33 -49 70 -10 13 -22 37 -25 53 -4 16
-10 29 -13 29 -4 0 -13 15 -21 33 -8 17 -17 34 -20 37 -4 3 -12 27 -19 55 -7
27 -17 52 -21 55 -5 3 -14 29 -21 58 -8 28 -17 52 -21 52 -3 0 -10 24 -13 52
-4 29 -11 55 -16 58 -5 3 -15 56 -22 118 -6 62 -16 112 -20 112 -4 0 -8 77 -8
170 0 107 4 170 10 170 6 0 10 21 10 47 0 69 21 223 31 223 5 0 11 23 15 50 4
28 10 50 14 50 4 0 10 14 14 30 3 17 9 44 12 60 4 17 10 30 14 30 4 0 13 20
20 45 7 25 16 45 20 45 4 0 13 20 20 44 7 25 18 47 25 50 7 2 16 18 20 34 3
17 13 33 21 36 8 3 14 12 14 21 0 8 4 15 8 15 5 0 15 12 23 28 8 15 19 32 24
38 31 36 45 55 45 63 0 13 165 181 177 181 5 0 16 11 23 25 7 14 18 25 24 25
7 0 19 8 28 18 24 26 61 52 74 52 7 0 14 7 18 15 3 8 12 15 21 15 8 0 15 4 15
10 0 5 11 12 25 16 14 3 25 9 25 13 0 5 18 14 40 21 22 7 40 17 40 21 0 4 14
10 30 14 17 4 30 11 30 16 0 5 9 9 19 9 11 0 26 7 34 15 8 8 35 18 59 21 23 4
45 11 49 15 3 5 27 12 55 15 27 4 52 11 55 16 3 5 47 12 97 15 51 3 92 10 92
14 0 5 52 9 115 9 63 0 115 -4 115 -8z m518 -1930 c67 -67 76 -86 62 -128 -6
-19 -16 -34 -21 -34 -5 0 -9 -6 -9 -14 0 -8 -11 -24 -25 -37 -13 -13 -25 -28
-25 -32 0 -5 -15 -24 -32 -42 -18 -18 -53 -57 -78 -85 -83 -96 -90 -99 -90
-47 0 50 20 161 30 167 5 3 14 29 20 58 7 29 15 52 20 52 4 0 13 20 20 45 7
25 16 45 19 45 4 0 13 23 20 50 8 32 18 50 28 50 8 0 36 -21 61 -48z"/>
<path d="M3870 5800 c0 -5 -12 -13 -27 -16 -31 -8 -39 -13 -99 -72 -24 -24
-44 -49 -44 -57 0 -7 -6 -15 -14 -18 -8 -3 -17 -21 -21 -39 -4 -18 -13 -36
-19 -40 -14 -9 -15 -266 -1 -276 6 -4 16 -29 23 -57 7 -27 17 -51 23 -53 5 -2
9 -9 9 -16 0 -6 9 -19 20 -29 11 -9 20 -24 20 -32 0 -8 7 -15 15 -15 8 0 19
-9 25 -20 6 -11 17 -20 26 -20 8 0 17 -6 20 -14 3 -8 20 -18 37 -22 18 -3 35
-11 38 -17 9 -14 178 -15 187 -1 4 6 18 15 32 19 14 4 31 16 38 26 7 11 17 19
23 19 12 0 49 37 49 50 0 6 9 19 20 30 11 11 26 41 32 68 7 26 17 50 23 54 14
10 13 277 -1 286 -6 4 -14 23 -18 43 -3 20 -15 47 -26 59 -11 13 -20 27 -20
33 0 13 -43 57 -56 57 -7 0 -14 7 -18 15 -3 8 -12 15 -21 15 -8 0 -15 4 -15
10 0 5 -16 12 -35 16 -19 3 -35 10 -35 15 0 5 -43 9 -95 9 -55 0 -95 -4 -95
-10z m170 -120 c0 -5 9 -10 20 -10 10 0 23 -6 27 -13 4 -6 20 -18 35 -26 15
-8 32 -27 37 -42 5 -16 14 -29 18 -29 12 0 33 -106 33 -165 0 -58 -21 -165
-32 -165 -4 0 -8 -6 -8 -13 0 -24 -89 -107 -120 -114 -17 -3 -30 -9 -30 -14 0
-5 -13 -9 -30 -9 -16 0 -30 5 -30 10 0 6 -14 10 -30 10 -18 0 -33 6 -36 15 -4
8 -11 15 -18 15 -15 0 -66 58 -66 75 0 7 -7 15 -14 18 -8 3 -18 23 -22 44 -4
21 -12 41 -18 45 -7 5 -11 46 -11 111 0 85 3 107 18 121 9 10 17 23 17 29 0
16 88 97 106 97 7 0 14 5 14 10 0 6 30 10 70 10 40 0 70 -4 70 -10z"/>
<path d="M4188 4669 c-23 -24 -24 -85 -2 -93 48 -18 64 1 64 77 0 32 -3 37
-22 36 -13 0 -31 -9 -40 -20z"/>
<path d="M4136 4474 c-32 -31 -16 -84 24 -84 31 0 40 15 40 66 0 29 -3 34 -24
34 -14 0 -32 -7 -40 -16z"/>
<path d="M4068 4293 c-20 -5 -33 -60 -23 -92 7 -24 40 -28 61 -7 23 24 28 70
9 89 -17 18 -18 18 -47 10z"/>
<path d="M3998 4090 c-32 -36 -16 -100 25 -100 39 0 51 112 12 118 -11 1 -28
-7 -37 -18z"/>
<path d="M3958 3892 c-17 -3 -23 -25 -19 -67 3 -40 56 -48 72 -11 23 49 -5 89
-53 78z"/>
<path d="M3961 3694 c-1 -7 -10 -14 -21 -17 -24 -6 -28 -53 -7 -82 17 -23 63
-14 72 14 8 27 -4 71 -20 71 -7 0 -16 6 -18 13 -4 7 -6 8 -6 1z"/>
<path d="M3957 3470 c-23 -27 -22 -55 3 -80 36 -36 60 -21 60 36 0 32 -17 64
-33 64 -7 0 -20 -9 -30 -20z"/>
<path d="M3027 2803 c-9 -8 -9 -1166 -1 -1187 5 -12 21 -16 70 -16 l64 0 0
195 c0 107 3 195 6 195 9 0 34 -28 34 -38 0 -5 25 -35 55 -67 30 -31 55 -61
55 -65 0 -5 23 -32 50 -61 28 -29 50 -56 50 -60 0 -9 16 -30 57 -75 20 -21 30
-24 98 -24 41 0 75 4 75 10 0 30 -56 108 -114 158 -10 10 -26 25 -35 35 -9 11
-33 37 -53 59 -21 22 -38 45 -38 50 0 6 -9 20 -20 32 -11 11 -37 41 -60 65
-40 44 -41 55 -8 79 10 7 18 18 18 23 0 6 6 16 13 24 6 7 32 36 57 65 25 28
71 79 103 113 31 33 57 64 57 68 0 5 18 27 40 50 58 62 54 69 -37 69 l-77 0
-41 -44 c-23 -25 -50 -57 -61 -71 -29 -41 -67 -86 -86 -104 -10 -8 -18 -19
-18 -23 0 -9 -22 -37 -67 -84 -18 -19 -33 -39 -33 -44 0 -6 -4 -10 -10 -10 -6
0 -10 122 -10 345 l0 345 -63 0 c-35 0 -67 -3 -70 -7z"/>
<path d="M6933 2802 c-9 -6 -13 -67 -15 -226 -3 -241 1 -228 -60 -160 -26 29
-42 41 -69 49 -13 4 -27 12 -30 17 -3 5 -29 11 -57 15 -29 3 -52 10 -52 14 0
5 -13 9 -30 9 -16 0 -30 -4 -30 -9 0 -4 -28 -12 -61 -15 -34 -4 -67 -13 -74
-19 -7 -7 -23 -19 -35 -27 -47 -32 -119 -112 -125 -140 -4 -17 -10 -30 -15
-30 -4 0 -11 -10 -15 -22 -6 -20 -8 -20 -12 -5 -2 9 -8 17 -13 17 -5 0 -11 14
-15 31 -4 17 -13 33 -21 36 -8 3 -14 10 -14 17 0 15 -56 76 -70 76 -6 0 -13 6
-16 14 -3 8 -19 18 -35 21 -16 4 -29 11 -29 15 0 5 -27 12 -60 16 -33 4 -60
11 -60 15 0 5 -18 9 -40 9 -22 0 -40 -4 -40 -9 0 -4 -25 -11 -57 -14 -31 -3
-59 -10 -62 -16 -3 -5 -18 -12 -33 -16 -15 -4 -29 -13 -32 -21 -3 -8 -12 -14
-21 -14 -8 0 -15 -4 -15 -8 0 -5 -18 -27 -39 -49 -22 -22 -43 -52 -47 -67 -3
-14 -10 -26 -14 -26 -10 0 -30 -80 -30 -119 0 -17 -4 -31 -10 -31 -6 0 -10
-30 -10 -70 0 -40 4 -70 10 -70 6 0 10 -13 10 -29 0 -47 23 -135 37 -144 7 -4
13 -14 13 -21 0 -8 7 -16 15 -20 8 -3 15 -12 15 -19 0 -17 45 -67 59 -67 6 0
15 -9 21 -20 6 -11 17 -20 25 -20 8 0 15 -4 15 -10 0 -5 17 -12 38 -16 20 -4
40 -11 43 -17 9 -13 210 -12 218 1 3 6 23 13 44 17 20 4 37 11 37 16 0 5 7 9
15 9 8 0 19 9 25 20 6 11 16 20 22 20 15 0 58 48 58 64 0 8 6 16 14 19 8 3 17
19 21 36 4 17 11 31 16 31 5 0 9 8 10 18 0 12 3 10 12 -8 6 -14 14 -27 17 -30
3 -3 12 -18 20 -35 19 -39 116 -135 135 -135 8 0 15 -4 15 -9 0 -5 15 -13 33
-16 17 -4 35 -12 38 -17 8 -13 190 -13 198 0 3 5 21 13 39 17 17 3 32 11 32
16 0 5 7 9 15 9 9 0 18 7 21 15 4 8 11 15 16 15 14 0 50 39 65 70 10 22 12 16
12 -48 1 -50 6 -78 15 -88 21 -20 112 -19 120 2 3 9 6 281 6 605 l0 589 -57 0
c-32 0 -64 -4 -70 -8z m-952 -434 c19 -6 39 -16 46 -22 7 -6 18 -16 25 -22 45
-40 68 -94 68 -160 l0 -44 -250 0 -250 0 0 35 c0 19 4 35 9 35 5 0 11 17 14
38 4 20 14 44 24 53 10 9 30 30 44 47 14 17 41 35 60 40 48 14 170 14 210 0z
m759 1 c27 -6 50 -15 50 -20 0 -5 8 -13 17 -16 27 -10 50 -38 64 -77 7 -20 16
-36 20 -36 13 0 29 -89 29 -158 0 -80 -16 -175 -30 -180 -6 -2 -10 -9 -10 -16
0 -12 -55 -72 -94 -104 -9 -7 -29 -15 -46 -18 -16 -4 -30 -10 -30 -15 0 -5
-27 -9 -60 -9 -33 0 -60 4 -60 10 0 6 -11 10 -24 10 -14 0 -31 6 -38 13 -7 6
-25 18 -40 26 -16 8 -28 17 -28 21 0 3 -8 15 -19 26 -10 11 -24 38 -31 60 -7
21 -18 42 -24 46 -15 10 -15 236 0 246 6 4 15 21 18 39 8 33 84 123 104 123 7
0 12 4 12 9 0 28 129 40 220 20z m-510 -383 c0 -8 4 -16 9 -18 4 -1 10 -22 14
-45 l5 -43 -74 0 c-62 0 -76 -3 -81 -17 -4 -10 -13 -24 -20 -31 -7 -7 -13 -20
-13 -28 0 -8 -11 -20 -25 -26 -14 -6 -25 -15 -25 -19 0 -4 -13 -10 -30 -14
-16 -4 -30 -11 -30 -16 0 -5 -36 -9 -80 -9 -44 0 -80 4 -80 9 0 5 -13 12 -29
16 -16 3 -32 13 -35 21 -3 8 -11 14 -17 14 -19 0 -67 59 -74 91 -4 16 -10 29
-15 29 -8 0 -20 80 -13 93 2 4 141 7 309 7 256 0 304 -2 304 -14z"/>
<path d="M760 2186 c0 -305 3 -561 6 -570 9 -23 109 -23 118 0 3 9 6 126 6
260 0 134 2 244 5 244 8 0 55 -51 55 -59 0 -10 40 -59 88 -106 17 -17 32 -37
32 -42 0 -6 17 -29 38 -51 20 -22 46 -52 57 -67 31 -42 67 -84 103 -120 17
-17 32 -37 32 -44 0 -6 7 -11 15 -11 8 0 15 -4 15 -10 0 -6 32 -10 75 -10 60
0 75 3 75 15 0 8 -4 15 -10 15 -5 0 -10 6 -10 14 0 12 -21 38 -115 138 -19 20
-35 41 -35 46 0 4 -26 36 -57 69 -73 77 -93 101 -93 112 0 4 -29 38 -65 76
-36 37 -65 75 -65 85 0 10 16 35 35 54 19 20 35 40 35 45 0 10 37 55 88 106
17 18 32 37 32 42 0 5 26 37 58 70 72 77 92 101 92 112 0 5 25 34 55 65 30 30
55 60 55 66 0 6 -34 10 -85 10 -47 0 -85 -4 -85 -9 0 -5 -11 -19 -25 -32 -13
-13 -25 -27 -25 -31 0 -4 -15 -23 -32 -42 -68 -72 -78 -84 -78 -94 0 -5 -18
-29 -40 -53 -22 -24 -49 -54 -60 -65 -11 -12 -20 -24 -20 -28 0 -3 -15 -21
-32 -40 -45 -46 -61 -67 -77 -99 -8 -15 -18 -27 -23 -27 -4 0 -8 117 -8 260
l0 260 -65 0 -65 0 0 -554z"/>
<path d="M4420 2160 l0 -560 59 0 c52 0 59 2 65 23 3 12 6 194 6 405 0 210 4
382 8 382 4 0 14 -17 21 -37 8 -21 17 -40 20 -43 4 -3 12 -27 19 -55 7 -27 17
-52 21 -55 4 -3 13 -26 21 -52 7 -27 16 -48 20 -48 5 0 14 -22 21 -50 7 -27
16 -50 20 -50 4 0 10 -13 14 -30 4 -16 10 -30 15 -30 5 0 14 -25 20 -55 6 -30
15 -55 20 -55 4 0 14 -23 21 -50 7 -27 16 -50 20 -50 3 0 12 -20 19 -45 7 -25
15 -45 19 -45 3 0 12 -13 19 -30 24 -54 101 -33 117 33 4 15 11 27 16 27 5 0
12 18 15 41 4 22 13 47 21 54 8 8 19 37 26 65 6 27 15 50 18 50 4 0 12 20 19
45 7 25 16 45 20 45 4 0 11 16 14 35 4 19 11 35 16 35 4 0 14 23 21 50 7 27
16 50 20 50 3 0 12 20 19 45 7 25 15 45 19 45 3 0 12 23 19 52 6 28 16 54 21
58 6 3 14 17 20 30 7 17 10 -99 10 -368 1 -327 3 -396 15 -408 21 -20 112 -19
120 2 3 9 6 261 6 560 l0 544 -75 0 c-58 0 -75 -3 -75 -14 0 -8 -6 -21 -13
-28 -7 -7 -18 -35 -25 -63 -7 -27 -17 -51 -22 -53 -5 -2 -14 -25 -21 -53 -7
-27 -16 -49 -20 -49 -3 0 -12 -20 -19 -45 -7 -25 -16 -45 -20 -45 -4 0 -11
-15 -14 -34 -4 -19 -11 -36 -16 -38 -5 -2 -15 -25 -22 -53 -7 -27 -15 -52 -19
-55 -3 -3 -12 -23 -19 -45 -7 -22 -18 -45 -25 -52 -7 -6 -15 -30 -19 -52 -3
-23 -10 -41 -15 -41 -5 0 -15 -22 -22 -50 -7 -27 -16 -50 -20 -50 -3 0 -12
-20 -19 -45 -15 -52 -26 -57 -35 -15 -4 17 -10 30 -15 30 -4 0 -14 23 -21 50
-7 28 -16 50 -20 50 -3 0 -12 20 -19 45 -7 25 -16 45 -19 45 -4 0 -13 23 -20
50 -7 28 -17 50 -21 50 -5 0 -14 25 -20 55 -6 30 -15 55 -20 55 -5 0 -11 14
-15 30 -4 17 -10 30 -14 30 -4 0 -13 23 -20 50 -7 28 -17 50 -21 50 -4 0 -14
23 -21 50 -7 28 -16 50 -20 50 -3 0 -12 20 -19 45 -7 25 -17 45 -21 45 -5 0
-9 8 -9 17 0 9 -5 32 -12 50 l-12 33 -73 0 -73 0 0 -560z"/>
<path d="M1800 2511 c0 -4 -30 -11 -66 -15 -36 -4 -71 -11 -77 -17 -29 -24
-57 -45 -77 -59 -33 -22 -60 -52 -60 -66 0 -6 -6 -14 -14 -17 -7 -3 -17 -18
-21 -34 -3 -15 -11 -31 -17 -34 -5 -3 -12 -25 -15 -48 -3 -22 -10 -41 -14 -41
-5 0 -9 -54 -9 -120 0 -66 4 -120 9 -120 5 0 11 -22 15 -50 4 -27 11 -50 15
-50 5 0 11 -10 15 -22 10 -41 124 -168 151 -168 8 0 15 -4 15 -9 0 -5 15 -13
33 -16 17 -4 35 -12 38 -17 8 -13 209 -13 218 -1 3 6 23 13 44 17 20 4 37 11
37 16 0 5 10 12 23 16 39 12 133 121 142 166 4 15 11 28 16 28 5 0 9 7 9 15 0
12 -15 15 -75 15 -60 0 -75 -3 -75 -15 0 -8 -4 -15 -10 -15 -5 0 -10 -6 -10
-13 0 -23 -69 -87 -100 -94 -17 -3 -30 -9 -30 -14 0 -5 -34 -9 -75 -9 -43 0
-75 4 -75 10 0 6 -9 10 -20 10 -11 0 -23 6 -26 14 -3 8 -17 17 -32 21 -31 8
-50 27 -72 70 -8 17 -18 32 -22 35 -4 3 -10 31 -14 63 l-7 57 328 0 328 0 -5
116 c-2 63 -9 119 -14 122 -6 4 -16 27 -23 51 -7 26 -29 61 -52 84 -21 22 -39
44 -39 48 0 5 -11 11 -25 15 -14 3 -25 10 -25 14 0 5 -10 12 -22 16 -13 4 -26
11 -29 16 -3 5 -31 12 -62 15 -32 3 -57 10 -57 14 0 5 -16 9 -35 9 -19 0 -35
-4 -35 -9z m136 -142 c24 -6 44 -15 44 -19 0 -4 18 -26 41 -50 25 -26 43 -56
46 -76 3 -19 10 -34 14 -34 5 0 9 -16 9 -35 l0 -35 -261 0 -262 0 7 47 c3 26
10 49 14 52 5 4 14 21 22 40 15 38 52 81 69 81 6 0 11 4 11 9 0 27 165 40 246
20z"/>
<path d="M2590 2511 c0 -4 -21 -11 -47 -14 -26 -3 -49 -10 -51 -16 -2 -6 -10
-11 -18 -11 -8 0 -34 -21 -59 -46 l-45 -45 0 60 0 61 -54 0 c-94 0 -86 43 -86
-442 0 -359 2 -432 14 -444 9 -9 35 -14 70 -14 l55 0 3 307 c2 234 6 307 16
311 6 2 12 12 12 23 0 30 44 99 64 99 5 0 14 7 21 16 26 36 244 26 259 -12 3
-8 11 -14 19 -14 7 0 19 -17 26 -37 8 -21 19 -41 25 -45 8 -5 12 -101 14 -305
1 -164 4 -308 7 -320 5 -20 12 -23 56 -23 30 0 56 6 65 14 11 12 14 69 14 320
0 197 -4 306 -10 306 -5 0 -10 11 -10 24 0 28 -20 87 -34 102 -6 7 -22 26 -36
43 -14 17 -30 31 -36 31 -7 0 -14 7 -18 15 -3 8 -12 15 -21 15 -8 0 -15 4 -15
9 0 6 -20 13 -45 17 -25 3 -45 10 -45 15 0 5 -25 9 -55 9 -30 0 -55 -4 -55 -9z"/>
<path d="M3940 2511 c0 -4 -27 -11 -60 -15 -33 -4 -60 -11 -60 -16 0 -6 -6
-10 -13 -10 -8 0 -25 -9 -38 -20 -71 -58 -109 -95 -109 -107 0 -7 -4 -13 -9
-13 -5 0 -15 -17 -22 -37 -6 -21 -16 -41 -21 -44 -13 -8 -28 -114 -28 -194 0
-87 16 -196 29 -204 5 -3 13 -19 16 -34 4 -16 14 -31 21 -34 8 -3 14 -11 14
-18 0 -13 55 -72 90 -95 12 -8 28 -21 36 -28 7 -7 28 -15 46 -19 18 -3 36 -10
39 -16 9 -13 209 -13 218 1 3 5 23 13 44 17 20 4 37 11 37 16 0 5 7 9 15 9 9
0 18 7 21 15 4 8 11 15 18 15 10 0 48 39 105 108 11 13 23 38 27 55 3 18 10
34 15 37 4 3 13 43 18 89 11 86 -1 259 -18 271 -4 3 -14 22 -21 43 -6 21 -25
52 -41 68 -16 16 -29 34 -29 39 0 6 -7 10 -15 10 -8 0 -19 9 -25 20 -6 11 -17
20 -25 20 -8 0 -15 5 -15 10 0 6 -6 10 -14 10 -8 0 -21 7 -30 15 -8 8 -42 18
-75 22 -34 3 -61 10 -61 14 0 5 -18 9 -40 9 -22 0 -40 -4 -40 -9z m141 -143
c22 -6 39 -15 39 -20 0 -4 5 -8 12 -8 14 0 78 -71 78 -87 0 -7 4 -13 9 -13 16
0 31 -96 31 -193 0 -97 -13 -161 -36 -184 -8 -8 -14 -20 -14 -26 0 -17 -41
-53 -70 -62 -13 -4 -30 -14 -38 -21 -7 -8 -27 -14 -43 -14 -16 0 -29 -4 -29
-10 0 -5 -20 -10 -45 -10 -25 0 -45 5 -45 10 0 6 -13 10 -28 10 -16 0 -39 9
-52 20 -12 11 -31 22 -41 25 -10 4 -22 17 -25 31 -3 13 -12 28 -20 32 -8 4
-20 31 -26 60 -7 29 -16 52 -20 52 -5 0 -8 43 -8 95 0 52 4 95 8 95 5 0 14 23
21 50 7 28 17 50 22 50 5 0 9 6 9 14 0 18 51 76 66 76 7 0 14 5 16 11 9 26
162 38 229 17z"/>
</g>
</svg>
